<?xml version="1.0" standalone="no"?>
<!DOCTYPE svg PUBLIC "-//W3C//DTD SVG 20010904//EN"
 "http://www.w3.org/TR/2001/REC-SVG-20010904/DTD/svg10.dtd">
<svg version="1.0" xmlns="http://www.w3.org/2000/svg"
 width="272.000000pt" height="272.000000pt" viewBox="0 0 272.000000 272.000000"
 preserveAspectRatio="xMidYMid meet">
<metadata>
Created by potrace 1.14, written by Peter Selinger 2001-2017
</metadata>
<g transform="translate(0.000000,272.000000) scale(0.100000,-0.100000)"
fill="#000000" stroke="none">
<path d="M1180 2714 c-14 -2 -59 -9 -100 -15 -161 -23 -279 -75 -320 -141 -34
-56 -41 -98 -47 -275 l-6 -173 327 0 326 0 0 -40 0 -40 -460 0 c-253 0 -462 0
-465 -1 -111 -19 -184 -54 -251 -119 -61 -59 -92 -117 -120 -227 -34 -136 -39
-179 -38 -338 2 -239 63 -445 161 -543 75 -75 131 -92 303 -92 105 0 140 3
141 13 0 6 2 89 3 182 2 128 7 182 20 219 39 113 134 213 248 259 50 20 73 22
463 27 405 5 411 5 457 29 69 34 126 94 159 167 l29 64 0 369 c0 355 -1 373
-22 428 -42 113 -161 200 -314 229 -74 14 -435 27 -494 18z m-105 -224 c95
-89 15 -243 -109 -209 -99 27 -118 161 -30 220 38 26 105 21 139 -11z"/>
<path d="M2096 2019 c-3 -8 -6 -97 -8 -199 l-3 -185 -33 -67 c-42 -86 -119
-163 -202 -202 l-65 -31 -405 -5 c-223 -3 -414 -9 -425 -14 -70 -29 -94 -43
-136 -83 -28 -26 -57 -68 -75 -106 l-28 -62 0 -375 c0 -361 1 -377 22 -422 44
-98 168 -183 332 -227 115 -31 126 -32 265 -37 303 -8 564 92 648 251 19 35
22 59 25 208 l4 167 -325 0 -326 0 2 40 2 40 520 0 520 0 51 24 c85 40 146
129 200 294 43 130 54 205 50 347 -2 72 -6 140 -9 151 -3 12 -8 37 -11 55 -12
75 -48 197 -75 254 -38 82 -81 129 -149 162 -53 26 -67 28 -209 32 -122 2
-154 0 -157 -10z m-286 -1594 c94 -90 -6 -250 -125 -201 -93 39 -101 172 -13
223 36 21 104 10 138 -22z"/>
</g>
</svg>
