<?xml version="1.0" standalone="no"?>
<!DOCTYPE svg PUBLIC "-//W3C//DTD SVG 20010904//EN"
 "http://www.w3.org/TR/2001/REC-SVG-20010904/DTD/svg10.dtd">
<svg version="1.0" xmlns="http://www.w3.org/2000/svg"
 width="512.000000pt" height="512.000000pt" viewBox="0 0 512.000000 512.000000"
 preserveAspectRatio="xMidYMid meet">
<metadata>
Created by potrace 1.14, written by Peter Selinger 2001-2017
</metadata>
<g transform="translate(0.000000,512.000000) scale(0.100000,-0.100000)"
fill="#000000" stroke="none">
<path d="M2226 5112 c-4 -4 -31 -7 -59 -8 -29 0 -63 -5 -77 -9 -14 -5 -43 -9
-65 -10 -22 -1 -49 -5 -60 -8 -11 -4 -37 -9 -58 -11 -21 -3 -43 -8 -49 -12 -6
-4 -23 -8 -37 -9 -14 -1 -33 -5 -41 -8 -8 -4 -24 -8 -35 -10 -11 -2 -28 -7
-37 -11 -9 -4 -22 -8 -30 -10 -19 -3 -127 -57 -164 -81 -37 -25 -94 -83 -111
-113 -40 -70 -56 -110 -50 -126 3 -8 1 -16 -6 -19 -6 -2 -12 -25 -14 -51 -2
-26 -8 -57 -15 -69 -11 -21 -10 -21 7 -7 10 8 16 10 12 4 -16 -27 -20 -95 -21
-324 l-1 -245 618 -3 617 -2 0 -74 0 -74 -879 2 c-484 0 -877 -2 -874 -6 2 -5
0 -8 -6 -8 -5 0 -17 -3 -27 -7 -13 -5 -15 -3 -9 7 6 10 4 11 -6 4 -8 -5 -29
-9 -47 -10 -18 -2 -39 -7 -46 -13 -8 -6 -21 -9 -30 -5 -9 3 -16 1 -16 -5 0 -6
-7 -11 -16 -11 -22 0 -184 -80 -184 -91 0 -5 -6 -9 -13 -9 -7 0 -45 -31 -85
-70 -40 -38 -69 -70 -66 -70 4 0 -3 -8 -14 -19 -12 -10 -22 -23 -22 -30 0 -6
-4 -11 -10 -11 -5 0 -10 -7 -10 -15 0 -9 -9 -25 -20 -37 -11 -12 -20 -30 -20
-39 0 -10 -5 -21 -11 -24 -6 -4 -8 -13 -5 -20 2 -7 -2 -16 -11 -19 -8 -4 -13
-12 -10 -20 3 -8 -1 -23 -8 -34 -8 -11 -13 -29 -10 -40 2 -11 -2 -25 -9 -31
-7 -6 -12 -25 -11 -42 1 -17 -3 -33 -9 -35 -6 -2 -11 -23 -11 -47 0 -23 -4
-45 -9 -49 -5 -3 -9 -25 -9 -47 0 -23 -4 -41 -10 -41 -5 0 -4 -7 3 -15 10 -12
10 -15 -1 -15 -11 0 -14 -18 -14 -74 0 -41 -4 -72 -8 -69 -4 3 -6 -80 -4 -184
6 -220 12 -315 24 -340 5 -10 9 -36 8 -58 0 -22 6 -46 13 -54 7 -7 11 -19 8
-26 -2 -7 2 -31 9 -53 8 -22 12 -50 10 -62 -2 -11 2 -23 9 -26 8 -3 12 -17 10
-35 -2 -18 1 -32 10 -35 8 -3 12 -16 10 -35 -2 -18 0 -28 6 -24 6 3 10 -3 10
-14 0 -11 4 -23 10 -26 6 -3 10 -17 10 -31 0 -13 3 -24 8 -24 9 0 32 -49 32
-68 0 -7 5 -10 10 -7 6 3 10 0 10 -8 0 -8 11 -26 24 -40 13 -14 22 -28 20 -30
-7 -7 109 -121 138 -136 16 -8 28 -18 28 -23 0 -4 9 -8 20 -8 11 0 20 -3 20
-7 0 -11 51 -33 61 -27 5 3 9 0 9 -6 0 -6 4 -9 9 -5 5 3 12 1 15 -4 4 -5 17
-8 31 -7 13 2 23 -1 22 -7 -2 -10 522 -19 550 -9 6 2 14 10 17 18 3 9 1 12 -4
9 -14 -9 -12 8 2 24 10 11 10 13 1 7 -7 -4 -13 -2 -13 3 0 6 5 11 12 11 9 0 9
3 0 12 -15 15 -16 31 0 22 7 -5 8 -3 2 7 -13 21 -14 39 -2 39 6 0 4 8 -4 18
-16 17 -13 47 3 36 5 -3 5 6 -1 20 -7 19 -6 26 3 26 7 0 8 3 2 8 -5 4 -10 14
-10 22 0 8 5 18 10 22 6 5 5 8 -3 8 -9 0 -10 5 -3 19 6 10 7 21 4 25 -11 11
-12 36 -1 36 7 0 7 4 0 13 -12 14 -11 67 2 67 5 0 3 6 -3 14 -9 11 -10 25 -2
50 5 21 6 34 0 31 -5 -4 -9 -1 -9 4 0 6 3 11 8 11 4 0 8 10 8 23 5 101 8 126
16 121 8 -5 12 11 9 30 -1 5 1 16 5 25 4 9 8 18 9 21 9 38 31 78 39 73 5 -4 7
0 3 9 -3 9 3 25 14 36 10 12 19 25 19 31 0 5 14 23 30 41 17 18 30 39 30 47 0
8 3 12 8 10 4 -2 15 4 25 15 9 10 14 18 11 18 -4 0 6 10 22 22 16 12 33 28 37
35 5 8 12 11 17 8 5 -3 15 3 22 15 7 11 17 20 22 20 5 0 31 13 57 30 27 16 55
29 62 27 6 -1 11 4 9 12 -2 9 4 12 18 8 11 -3 27 1 35 10 9 8 23 12 32 9 9 -4
20 -2 23 5 4 6 29 12 55 14 27 1 51 8 56 16 7 12 9 11 9 -1 0 -12 2 -12 9 -1
6 9 11 10 15 2 5 -8 13 -8 27 -1 14 8 19 7 19 -2 0 -9 3 -9 11 2 8 12 12 12
16 2 4 -10 8 -10 19 -1 11 9 14 8 14 -2 0 -11 3 -11 11 1 8 11 12 12 16 2 2
-6 10 -9 16 -5 18 11 57 10 57 -2 0 -5 5 -3 11 5 8 12 12 12 16 2 4 -10 8 -10
19 -1 11 9 14 8 14 -2 0 -11 3 -11 11 1 8 11 12 12 16 2 2 -6 10 -9 16 -5 18
11 57 10 57 -2 0 -5 5 -3 11 5 8 12 12 12 16 2 4 -10 8 -10 19 -1 11 9 14 8
14 -2 0 -11 3 -11 11 1 8 11 12 12 16 2 2 -6 10 -9 16 -5 18 11 57 10 57 -2 0
-5 5 -3 11 5 8 12 12 12 16 2 4 -10 8 -10 19 -1 11 9 14 8 14 -2 0 -11 3 -11
11 1 8 11 12 12 16 2 2 -6 9 -9 15 -6 17 11 138 10 138 -1 0 -5 5 -3 11 5 8
11 12 12 16 2 2 -6 10 -9 16 -5 17 10 47 11 47 1 0 -5 5 -6 11 -2 16 9 129 11
129 1 0 -5 5 -5 10 -2 6 4 95 8 198 10 161 2 206 5 232 15 3 1 13 2 23 1 9 -1
17 3 17 8 0 6 6 11 14 11 16 0 98 41 107 53 3 5 8 7 10 5 8 -6 59 40 59 53 0
11 2 11 8 2 6 -9 18 -1 43 26 47 53 77 94 77 105 0 5 6 12 13 17 7 4 14 15 15
24 1 9 10 25 18 34 9 10 13 21 9 24 -3 4 -2 7 3 7 5 0 10 8 11 18 5 41 16 82
23 82 4 0 8 51 8 113 0 61 1 117 2 122 2 10 0 80 -3 147 -1 21 2 40 8 42 5 3
4 5 -4 5 -11 1 -11 4 -1 16 9 11 9 15 1 15 -7 0 -9 5 -5 12 4 6 6 35 5 62 -1
28 -3 68 -4 88 -1 21 2 40 8 42 5 3 4 5 -4 5 -11 1 -11 4 -1 16 9 11 9 15 1
15 -7 0 -9 5 -5 12 4 6 6 35 5 62 -1 28 -3 68 -4 88 -1 21 2 40 8 42 5 3 4 5
-4 5 -11 1 -11 4 -1 16 9 11 9 15 1 15 -7 0 -9 5 -5 12 4 6 6 35 5 62 -1 28
-3 68 -4 88 -1 21 2 40 8 42 5 3 4 5 -4 5 -11 1 -11 4 -1 16 10 12 10 15 0 15
-9 0 -10 3 -1 13 6 8 9 16 6 19 -3 3 -6 49 -7 102 0 53 -5 99 -9 102 -5 3 -9
18 -9 35 0 16 -4 29 -10 29 -5 0 -10 11 -10 25 0 14 -4 25 -10 25 -5 0 -10 9
-10 20 0 11 -5 20 -11 20 -5 0 -8 4 -5 8 3 5 -6 20 -19 34 -13 14 -22 28 -20
30 6 5 -109 115 -156 150 -20 15 -39 24 -43 21 -3 -4 -6 -2 -6 4 0 6 -13 16
-30 23 -16 7 -30 16 -30 21 0 5 -9 9 -19 9 -11 0 -23 5 -26 11 -4 6 -13 8 -20
5 -7 -2 -21 1 -31 8 -11 7 -27 12 -36 11 -9 -2 -19 2 -21 9 -3 6 -22 12 -43
11 -22 0 -44 4 -50 10 -6 5 -37 10 -70 10 -32 0 -62 4 -65 8 -15 20 -732 35
-755 16 -10 -8 -18 -9 -27 0 -8 6 -17 7 -21 3z m-402 -374 c8 13 85 5 103 -10
7 -6 13 -8 13 -4 0 4 12 0 28 -8 38 -20 95 -82 99 -108 2 -12 8 -27 15 -35 13
-16 14 -113 1 -122 -5 -3 -8 -13 -8 -21 0 -17 -8 -29 -51 -76 -17 -18 -30 -35
-28 -37 2 -2 -2 -4 -9 -4 -6 -1 -28 -6 -47 -13 -72 -24 -90 -28 -96 -19 -3 5
-16 9 -28 9 -41 0 -102 40 -144 94 -12 15 -19 32 -16 37 3 5 -1 9 -8 9 -17 0
-17 145 0 162 7 7 12 19 12 28 0 19 69 92 80 85 4 -3 10 2 14 10 3 8 12 12 19
9 8 -3 17 3 21 13 6 14 9 15 15 4 6 -9 11 -10 15 -3z"/>
<path d="M3951 3812 c-8 -8 -11 -65 -11 -183 1 -94 0 -173 -3 -175 -3 -3 -1
-20 3 -39 4 -19 6 -36 3 -38 -2 -3 -4 -59 -5 -126 0 -72 -5 -121 -10 -121 -6
0 -8 -9 -5 -20 3 -11 1 -23 -4 -26 -5 -3 -7 -10 -4 -15 4 -5 2 -9 -2 -9 -5 0
-10 -12 -11 -27 -1 -15 -8 -30 -15 -35 -6 -4 -8 -8 -4 -8 4 0 2 -10 -5 -22 -7
-13 -12 -27 -13 -31 0 -4 -7 -12 -15 -17 -8 -5 -12 -12 -8 -15 3 -4 -2 -16
-12 -28 -11 -12 -20 -26 -22 -32 -3 -12 -23 -37 -65 -81 -17 -19 -29 -34 -27
-34 3 0 -1 -6 -8 -14 -7 -8 -15 -13 -18 -13 -5 2 -37 -24 -80 -63 -9 -8 -23
-16 -31 -18 -8 -2 -17 -10 -22 -17 -4 -8 -14 -12 -22 -9 -8 4 -15 1 -15 -5 0
-6 -9 -11 -20 -11 -11 0 -20 -4 -20 -9 0 -9 -120 -51 -145 -51 -8 0 -15 -4
-15 -8 0 -4 -320 -8 -710 -7 -394 0 -710 -4 -710 -9 0 -4 -9 -6 -20 -3 -11 3
-20 2 -20 -1 0 -4 -12 -8 -27 -8 -37 -2 -65 -8 -80 -17 -7 -5 -19 -5 -25 -1
-7 4 -10 4 -6 -1 9 -10 -37 -35 -63 -35 -11 0 -19 -4 -19 -10 0 -5 -7 -10 -15
-10 -8 0 -15 -4 -15 -10 0 -5 -5 -10 -11 -10 -7 0 -22 -11 -35 -25 -13 -14
-30 -25 -39 -25 -8 0 -14 -3 -14 -7 3 -19 -2 -33 -11 -33 -11 0 -59 -47 -60
-58 0 -4 -5 -14 -12 -23 -21 -25 -78 -143 -78 -159 0 -9 -6 -22 -12 -29 -11
-11 -10 -12 2 -6 13 8 13 6 1 -8 -7 -9 -11 -23 -8 -32 4 -8 2 -17 -2 -19 -5
-3 -6 -18 -3 -32 4 -21 2 -25 -9 -19 -8 5 -5 -2 5 -14 16 -18 17 -21 3 -16
-12 5 -15 2 -12 -14 2 -12 7 -26 10 -31 3 -6 1 -10 -6 -10 -9 0 -9 -4 1 -15 6
-8 8 -20 4 -27 -13 -21 -11 -59 3 -54 9 4 7 -4 -4 -21 -17 -26 -17 -27 2 -20
20 7 20 7 1 -8 -11 -8 -15 -15 -10 -15 5 0 10 -9 11 -20 1 -13 -2 -18 -10 -13
-7 4 -6 0 2 -10 11 -14 11 -17 0 -17 -11 0 -11 -2 1 -10 12 -8 12 -10 1 -10
-11 0 -11 -3 -1 -15 6 -8 8 -20 4 -27 -13 -21 -11 -59 3 -54 9 4 7 -4 -4 -21
-17 -26 -17 -27 2 -20 20 7 20 7 1 -8 -11 -8 -15 -15 -10 -15 5 0 10 -9 11
-20 1 -13 -2 -18 -10 -13 -7 4 -6 0 2 -10 11 -14 11 -17 0 -17 -11 0 -11 -2 1
-10 12 -8 12 -10 1 -10 -11 0 -11 -3 -1 -15 8 -9 9 -20 4 -27 -12 -16 -11 -39
1 -57 5 -10 4 -16 -4 -19 -9 -3 -9 -7 -1 -17 8 -10 8 -15 0 -20 -8 -5 -7 -11
2 -23 11 -12 11 -16 0 -20 -9 -3 -10 -7 -2 -17 8 -10 8 -15 0 -20 -8 -5 -7
-11 2 -23 11 -12 11 -16 0 -20 -9 -3 -10 -7 -2 -17 8 -10 8 -15 0 -20 -8 -5
-7 -11 2 -23 11 -12 11 -16 0 -20 -9 -3 -10 -7 -2 -17 8 -10 8 -15 0 -20 -8
-5 -7 -11 2 -23 11 -12 11 -16 0 -20 -9 -3 -10 -7 -2 -17 8 -10 8 -15 0 -20
-8 -5 -7 -11 1 -22 10 -11 10 -16 0 -23 -9 -5 -10 -10 -2 -14 6 -4 11 -12 11
-17 0 -6 -6 -7 -12 -3 -9 5 -9 2 1 -9 11 -14 11 -17 0 -17 -9 0 -10 -3 -4 -8
12 -8 13 -22 2 -39 -4 -6 -2 -15 4 -19 8 -4 7 -9 -2 -15 -8 -5 -9 -9 -3 -9 5
0 11 -19 13 -42 1 -22 6 -49 11 -59 6 -10 10 -29 10 -44 0 -14 6 -28 14 -31 8
-3 12 -12 9 -20 -3 -8 -1 -14 4 -14 6 0 15 -11 21 -24 16 -35 122 -156 137
-156 3 0 18 -11 33 -25 15 -14 32 -25 39 -25 7 0 16 -6 20 -14 4 -8 15 -16 23
-18 8 -2 21 -9 28 -16 8 -7 18 -10 23 -7 5 4 9 1 9 -4 0 -6 9 -11 20 -11 11 0
20 -4 20 -10 0 -5 7 -10 15 -10 8 0 35 -9 60 -21 24 -11 49 -18 55 -14 5 3 13
0 16 -8 3 -8 19 -14 35 -15 17 0 37 -6 45 -13 7 -6 23 -9 33 -6 11 3 21 1 23
-5 2 -5 14 -9 28 -10 14 -1 31 -6 37 -11 9 -6 13 -5 13 3 0 9 4 9 17 -1 9 -8
24 -15 35 -15 10 -1 19 -2 21 -3 5 -4 74 -12 120 -13 26 -1 47 -5 47 -10 0
-13 378 -10 402 3 16 8 19 8 13 -1 -5 -9 -3 -9 11 -2 11 5 38 9 62 8 23 0 43
3 45 7 1 5 25 10 53 12 28 1 61 8 72 14 12 7 22 10 22 7 0 -3 21 1 47 9 25 8
50 12 55 9 4 -3 10 1 13 8 3 7 20 14 37 14 18 1 34 6 36 12 1 5 12 8 22 5 11
-3 20 -1 20 4 0 5 10 9 22 10 11 1 24 6 27 10 3 4 11 9 16 10 17 4 80 28 85
33 3 3 31 19 63 35 33 17 89 58 125 92 37 35 70 63 74 63 5 0 8 6 8 13 0 7 9
20 20 30 12 10 18 22 15 27 -3 6 -1 10 4 10 6 0 11 9 11 20 0 11 4 20 9 20 12
0 34 56 27 68 -3 5 0 15 8 21 10 8 14 41 14 121 0 61 1 113 2 118 2 7 0 78 -3
144 -1 21 2 40 8 42 5 3 4 5 -4 5 -11 1 -11 4 -1 16 9 11 9 15 1 15 -7 0 -9 5
-5 12 8 13 6 120 -3 128 -2 3 -279 5 -615 5 -600 0 -611 0 -614 20 -2 10 2 25
7 31 6 7 6 15 1 18 -7 4 -9 55 -3 76 0 3 441 5 979 4 618 0 984 3 997 10 11 5
29 10 40 11 25 2 77 26 87 40 4 5 8 6 8 2 0 -13 61 33 111 84 26 26 50 45 54
41 5 -4 5 1 2 11 -4 11 -1 20 8 23 8 4 12 10 9 15 -3 5 0 9 5 9 6 0 11 7 11
15 0 9 7 18 15 21 8 4 13 10 10 14 -3 5 -1 11 5 15 5 3 10 15 10 26 0 10 3 19
8 19 8 0 32 49 32 67 0 7 5 13 10 13 6 0 10 11 10 24 0 14 5 28 10 31 6 4 8
10 5 15 -3 5 -1 11 5 15 6 4 8 11 5 16 -4 5 -1 9 6 9 6 0 9 8 6 20 -3 11 -2
20 1 20 7 0 28 56 38 100 3 13 9 29 13 35 4 5 6 20 5 33 0 12 3 22 8 22 5 0 6
5 3 10 -3 6 -2 10 2 10 5 0 8 16 8 35 -1 19 1 35 5 35 3 0 7 17 9 38 2 20 4
46 5 57 1 11 6 26 10 34 7 11 6 12 -5 6 -12 -7 -12 -6 -1 8 11 12 13 61 11
211 -2 107 -6 193 -10 190 -4 -2 -7 19 -7 48 1 29 -4 64 -11 77 -11 19 -11 22
1 15 11 -6 11 -5 -1 9 -7 9 -11 17 -9 17 3 0 1 21 -4 48 -6 26 -11 61 -12 77
-2 17 -7 39 -13 50 -5 11 -9 27 -8 35 1 8 -3 20 -7 27 -5 6 -10 27 -11 47 -1
20 -7 36 -13 36 -6 0 -10 12 -8 27 1 15 -1 32 -6 39 -5 6 -11 19 -13 30 -2 10
-9 30 -14 44 -6 14 -9 28 -6 33 2 4 0 7 -5 7 -9 0 -18 19 -27 57 -2 7 -13 24
-24 39 -12 15 -21 31 -21 37 0 5 -10 18 -22 28 -11 11 -17 19 -12 19 5 0 0 7
-10 15 -11 8 -17 15 -13 15 12 0 -78 85 -106 99 -15 8 -27 18 -27 23 0 5 -4 7
-9 3 -5 -3 -17 2 -25 11 -9 8 -16 13 -16 9 0 -3 -11 2 -25 11 -14 9 -25 13
-25 10 0 -4 -9 -2 -19 3 -10 6 -34 13 -52 15 -19 2 -58 7 -87 11 -97 14 -478
11 -491 -3z m-757 -2954 c-5 -7 -3 -8 7 -2 17 10 109 13 109 3 0 -3 12 -9 28
-13 32 -7 115 -83 106 -97 -3 -5 0 -8 6 -7 7 2 14 -10 16 -27 2 -16 7 -31 11
-32 10 -4 8 -76 -2 -93 -6 -9 -4 -11 6 -6 8 4 6 1 -5 -8 -10 -8 -16 -22 -13
-31 4 -8 2 -15 -4 -15 -5 0 -13 -8 -16 -17 -9 -23 -55 -69 -65 -65 -4 1 -8 -3
-8 -9 0 -5 -4 -8 -9 -5 -5 3 -11 0 -14 -7 -3 -8 -19 -13 -40 -12 -20 0 -34 -2
-31 -6 2 -4 -2 -9 -8 -12 -18 -5 -49 4 -43 13 3 4 -10 7 -28 6 -17 -1 -38 4
-45 11 -8 7 -18 10 -24 7 -7 -4 -8 -2 -4 4 4 7 3 12 -2 12 -17 0 -63 53 -81
93 -20 44 -20 159 0 183 6 8 8 14 3 14 -5 0 -1 5 9 11 9 5 17 16 17 23 0 7 9
21 20 31 11 10 20 14 20 10 0 -4 9 2 20 15 11 12 26 20 34 17 8 -3 17 1 20 9
3 8 8 14 11 14 4 0 3 -5 -1 -12z"/>
</g>
</svg>
